# Blender 4.0.2
# www.blender.org
mtllib base.mtl
o Cube
v -11.091578 -0.005511 11.091578
v -10.757627 0.005511 10.757627
v -11.091578 -0.005511 -11.091578
v -10.757627 0.005511 -10.757627
v 11.091578 -0.005511 11.091578
v 10.757627 0.005511 10.757627
v 11.091578 -0.005511 -11.091578
v 10.757627 0.005511 -10.757627
v 10.757627 0.345495 10.757627
v 10.757627 0.345495 -10.757627
v -10.757627 0.345495 10.757627
v -11.091578 0.334472 11.091578
v 11.091578 0.334472 -11.091578
v -11.091578 0.334472 -11.091578
v -10.757627 0.345495 -10.757627
v 11.091578 0.334472 11.091578
vn -0.0000 -1.0000 -0.0000
vn -0.0000 -0.0000 1.0000
vn -0.0000 1.0000 -0.0000
vn -0.0000 -0.0000 -1.0000
vn -1.0000 -0.0000 -0.0000
vn -0.0000 0.9995 -0.0330
vn 0.0330 0.9995 -0.0000
vn -0.0330 0.9995 -0.0000
vn -0.0000 0.9995 0.0330
vn 1.0000 -0.0000 -0.0000
vt 0.875000 0.500000
vt 0.625000 0.750000
vt 0.625000 0.500000
vt 0.371236 0.746236
vt 0.128764 0.746236
vt 0.371236 0.503764
vt 0.128764 0.503764
vt 0.375000 0.996236
vt 0.625000 0.000000
vt 0.375000 0.250000
vt 0.375000 0.003764
vt 0.625000 0.250000
vt 0.875000 0.750000
vt 0.625000 1.000000
s 0
usemtl Material
f 5/1/1 1/3/1 3/2/1
f 4/4/2 8/5/2 10/5/2
f 1/3/2 5/1/2 16/1/2
f 2/6/3 6/7/3 8/5/3
f 6/7/4 2/6/4 11/6/4
f 3/2/5 1/3/5 12/3/5
f 14/2/6 15/4/6 10/8/6
f 13/9/7 10/11/7 9/10/7
f 12/3/8 11/6/8 15/4/8
f 16/12/9 9/10/9 11/6/9
f 7/13/4 3/2/4 14/2/4
f 2/6/10 4/4/10 15/4/10
f 8/5/5 6/7/5 9/7/5
f 5/1/10 7/13/10 13/13/10
f 5/1/1 3/2/1 7/13/1
f 4/4/2 10/5/2 15/4/2
f 1/3/2 16/1/2 12/3/2
f 2/6/3 8/5/3 4/4/3
f 6/7/4 11/6/4 9/7/4
f 3/2/5 12/3/5 14/2/5
f 14/2/6 10/8/6 13/14/6
f 13/9/7 9/10/7 16/12/7
f 12/3/8 15/4/8 14/2/8
f 16/12/9 11/6/9 12/3/9
f 7/13/4 14/2/4 13/13/4
f 2/6/10 15/4/10 11/6/10
f 8/5/5 9/7/5 10/5/5
f 5/1/10 13/13/10 16/1/10
